<svg width="47" height="62" viewBox="0 0 47 62" fill="none" xmlns="http://www.w3.org/2000/svg">
<path fill-rule="evenodd" clip-rule="evenodd" d="M46.3161 45.5055C46.3951 53.2031 37.1375 61.1776 31.7106 61.4675C26.2836 61.7574 23.0838 61.9121 16.8025 55.5829C10.5211 49.2537 2.53226 39.4899 0.586157 37.2149C-1.35994 34.94 2.57453 29.9535 5.56578 32.699C8.55703 35.4444 11.43 40.9948 13.4895 40.0561C15.5491 39.1174 14.6689 35.9559 14.8168 31.5728C14.9648 27.1897 15.0257 7.4908 15.1507 4.5213C15.2756 1.5518 16.9985 0.0735065 18.3498 0.171235C19.7011 0.268963 21.7218 1.50995 21.4778 4.46816C21.2338 7.42636 21.4176 22.4339 21.5708 23.8531C21.7241 25.2723 23.6003 25.6286 23.5929 23.4728C23.5855 21.317 23.5583 19.0897 23.6762 17.2733C23.7941 15.4568 29.4435 13.4832 29.4007 16.7349C29.3579 19.9867 29.4653 24.1163 29.7461 26.0039C30.0269 27.8915 31.6808 27.3353 31.5874 25.7914C31.494 24.2475 31.5204 21.446 31.5342 19.4021C31.548 17.3582 36.8169 15.949 37.5088 18.6517C38.2008 21.3543 37.9635 26.4749 38.0698 27.9539C38.1761 29.4329 40.2359 29.5296 39.9777 27.667C39.7195 25.8044 39.6322 22.7721 42.4375 22.5586C45.2428 22.3451 46.4143 23.9056 46.2394 26.2494C46.0645 28.5932 46.2372 37.8078 46.3161 45.5055Z" fill="white" fill-opacity="0.95"/>
</svg>
